<?xml version="1.0" encoding="UTF-8"?>
<svg width="66px" height="46px" viewBox="0 0 66 46" version="1.1" xmlns="http://www.w3.org/2000/svg" xmlns:xlink="http://www.w3.org/1999/xlink">
    <!-- Generator: Sketch 55 (78076) - https://sketchapp.com -->
    <title>Mastercard </title>
    <desc>Created with Sketch.</desc>
    <g id="Assets" stroke="none" stroke-width="1" fill="none" fill-rule="evenodd">
        <g id="White" transform="translate(-103.000000, -31.000000)">
            <g id="Mastercard-" transform="translate(103.000000, 31.000000)">
                <path d="M0.5,3.00044415 L0.5,42.9995558 C0.5,44.3749492 1.62546767,45.5 3.00738502,45.5 L62.992615,45.5 C64.3765124,45.5 65.5,44.3795764 65.5,42.9995558 L65.5,3.00044415 C65.5,1.62505085 64.3745323,0.5 62.992615,0.5 L3.00738502,0.5 C1.62348762,0.5 0.5,1.6204236 0.5,3.00044415 Z" id="Rectangle-Copy-4" stroke="#E6E7E8" fill="#FFFFFF"></path>
                <g id="mc_symbol" transform="translate(13.000000, 10.000000)">
                    <g id="Group" opacity="0" fill="#FFFFFF">
                        <rect id="Rectangle" x="0" y="0" width="39.8151515" height="25.9701149"></rect>
                    </g>
                    <rect id="Rectangle" fill="#FF5F00" x="14.6575758" y="4.5245977" width="10.5030303" height="16.917931"></rect>
                    <path d="M15.7393939,12.9850575 C15.7367568,9.68425331 17.2732148,6.56556145 19.9060606,4.52758621 C15.4332698,1.06093502 9.01016282,1.56588274 5.15072663,5.68756569 C1.29129045,9.80924864 1.29129045,16.1638548 5.15072663,20.2855378 C9.01016282,24.4072207 15.4332698,24.9121684 19.9060606,21.4455172 C17.2723769,19.4068948 15.735825,16.2869104 15.7393939,12.9850575 Z" id="Path" fill="#EB001B"></path>
                    <path d="M36.5360606,20.0825078 L36.5360606,19.3794775 L36.7027273,19.3794775 L36.7027273,19.234023 L36.3060606,19.234023 L36.3060606,19.3794775 L36.4627273,19.3794775 L36.4627273,20.0825078 L36.5360606,20.0825078 Z M37.3060606,20.0825078 L37.3060606,19.234023 L37.1860606,19.234023 L37.0460606,19.8400836 L36.9060606,19.234023 L36.7860606,19.234023 L36.7860606,20.0825078 L36.8727273,20.0825078 L36.8727273,19.4400836 L37.0027273,19.9915987 L37.0927273,19.9915987 L37.2227273,19.4400836 L37.2227273,20.0825078 L37.3060606,20.0825078 Z" id="Shape" fill="#F79E1B" fill-rule="nonzero"></path>
                    <path d="M37.5575758,12.9850575 C37.5574784,17.1042286 35.1725518,20.8617576 31.4156834,22.6618074 C27.6588151,24.4618572 23.1895727,23.9884054 19.9060606,21.4425287 C22.5377577,19.4028233 24.0743313,16.2845461 24.0743313,12.9835632 C24.0743313,9.68258035 22.5377577,6.56430313 19.9060606,4.5245977 C23.1895727,1.97872109 27.6588151,1.50526928 31.4156834,3.30531907 C35.1725518,5.10536886 37.5574784,8.86289782 37.5575758,12.982069 L37.5575758,12.9850575 Z" id="Path" fill="#F79E1B"></path>
                </g>
            </g>
        </g>
    </g>
</svg>