<?xml version="1.0" encoding="UTF-8"?>
<svg width="66px" height="46px" viewBox="0 0 66 46" version="1.1" xmlns="http://www.w3.org/2000/svg" xmlns:xlink="http://www.w3.org/1999/xlink">
    <!-- Generator: Sketch 55 (78076) - https://sketchapp.com -->
    <title>Visa </title>
    <desc>Created with Sketch.</desc>
    <g id="Assets" stroke="none" stroke-width="1" fill="none" fill-rule="evenodd">
        <g id="White" transform="translate(-179.000000, -31.000000)">
            <g id="Visa-" transform="translate(179.000000, 31.000000)">
                <path d="M0.5,3.00044415 L0.5,42.9995558 C0.5,44.3749492 1.62546767,45.5 3.00738502,45.5 L62.992615,45.5 C64.3765124,45.5 65.5,44.3795764 65.5,42.9995558 L65.5,3.00044415 C65.5,1.62505085 64.3745323,0.5 62.992615,0.5 L3.00738502,0.5 C1.62348762,0.5 0.5,1.6204236 0.5,3.00044415 Z" id="Rectangle-Copy-4" stroke="#E6E7E8" fill="#FFFFFF"></path>
                <g id="Visa_Inc._logo" transform="translate(11.000000, 16.000000)" fill="#0742A6">
                    <polygon id="polygon9" points="19.022344 13.7439918 15.4826495 13.7439918 17.696628 0.411876497 21.2361289 0.411876497"></polygon>
                    <path d="M31.854051,0.737808676 C31.1558677,0.4680522 30.0484913,0.170207872 28.6792236,0.170207872 C25.1836616,0.170207872 22.7221154,1.9855502 22.7070175,4.58094305 C22.677983,6.49581816 24.4694125,7.55938632 25.8092586,8.19786654 C27.1787199,8.85029642 27.6442399,9.27613841 27.6442399,9.85768888 C27.6303034,10.7508448 26.5376378,11.1625487 25.5185263,11.1625487 C24.1053197,11.1625487 23.3480996,10.9502874 22.1973649,10.4533775 L21.7312642,10.2403623 L21.2359354,13.2331323 C22.0661289,13.601479 23.5956672,13.9283537 25.1836616,13.9426804 C28.8977567,13.9426804 31.3157511,12.1554259 31.3443985,9.38962086 C31.3585286,7.87193436 30.4125841,6.70902192 28.3731998,5.7587477 C27.1351681,5.14873236 26.3769801,4.73740557 26.3769801,4.11325205 C26.3914974,3.54583975 27.0182558,2.9646663 28.4157838,2.9646663 C29.5665184,2.93620143 30.4120035,3.20558089 31.0525049,3.47514885 L31.3726588,3.61671916 L31.854051,0.737808676 L31.854051,0.737808676 L31.854051,0.737808676 Z" id="path11"></path>
                    <path d="M36.5586102,9.02089713 C36.8501168,8.25498478 37.9718169,5.29067969 37.9718169,5.29067969 C37.957106,5.31914456 38.2627427,4.51062916 38.4375305,4.01428479 L38.6849046,5.16305905 C38.6849046,5.16305905 39.3552147,8.35432906 39.5007744,9.02089713 C38.9475701,9.02089713 37.2577614,9.02089713 36.5586102,9.02089713 L36.5586102,9.02089713 Z M40.9279176,0.411876497 L38.1899629,0.411876497 C37.3456392,0.411876497 36.70417,0.652791086 36.3398836,1.51804771 L31.0821201,13.7438033 L34.7962152,13.7438033 C34.7962152,13.7438033 35.4076821,12.0983077 35.5391117,11.7439106 C35.9465627,11.7439106 39.5596177,11.7439106 40.0837875,11.7439106 C40.1854083,12.2119786 40.5061429,13.7438033 40.5061429,13.7438033 L43.7835589,13.7438033 L40.9279176,0.411876497 L40.9279176,0.411876497 L40.9279176,0.411876497 Z" id="path13" fill-rule="nonzero"></path>
                    <path d="M12.5261616,0.411876497 L9.0596341,9.50310332 L8.68083047,7.65929613 C8.03994194,5.53178279 6.02997926,3.22028459 3.78696621,2.07094481 L6.96218075,13.7298536 L10.7053104,13.7298536 L16.2690977,0.411876497 L12.5261616,0.411876497 L12.5261616,0.411876497 L12.5261616,0.411876497 Z" id="path15"></path>
                    <path d="M5.84067422,0.411876497 L0.145650915,0.411876497 L0.0873883221,0.681255956 C4.52986266,1.78761568 7.47202683,4.45445346 8.68083047,7.65986166 L7.44279875,1.53256291 C7.23897646,0.681067446 6.61260519,0.439964348 5.84067422,0.411876497 L5.84067422,0.411876497 Z" id="path17"></path>
                </g>
            </g>
        </g>
    </g>
</svg>