<?xml version="1.0" encoding="UTF-8"?>
<svg width="66px" height="46px" viewBox="0 0 66 46" version="1.1" xmlns="http://www.w3.org/2000/svg" xmlns:xlink="http://www.w3.org/1999/xlink">
    <!-- Generator: Sketch 55 (78076) - https://sketchapp.com -->
    <title>Visa-Electron</title>
    <desc>Created with Sketch.</desc>
    <defs>
        <path d="M0,3.00044415 C0,1.34334461 1.34828267,0 3.00738502,0 L62.992615,0 C64.6535479,0 66,1.35178054 66,3.00044415 L66,42.9995558 C66,44.6566554 64.6517173,46 62.992615,46 L3.00738502,46 C1.34645213,46 0,44.6482195 0,42.9995558 L0,3.00044415 Z" id="path-1"></path>
    </defs>
    <g id="Design" stroke="none" stroke-width="1" fill="none" fill-rule="evenodd">
        <g id="Visa-Electron">
            <g id="Rectangle-+-Rectangle-Mask">
                <mask id="mask-2" fill="white">
                    <use xlink:href="#path-1"></use>
                </mask>
                <use id="Mask" fill="#FFFFFF" xlink:href="#path-1"></use>
                <rect id="Rectangle" fill="#1A1F71" mask="url(#mask-2)" x="0" y="1" width="66" height="6"></rect>
                <rect id="Rectangle" fill="#F7B600" mask="url(#mask-2)" x="0" y="39" width="66" height="6"></rect>
            </g>
            <path d="M0.5,3.00044415 L0.5,42.9995558 C0.5,44.3749492 1.62546767,45.5 3.00738502,45.5 L62.992615,45.5 C64.3765124,45.5 65.5,44.3795764 65.5,42.9995558 L65.5,3.00044415 C65.5,1.62505085 64.3745323,0.5 62.992615,0.5 L3.00738502,0.5 C1.62348762,0.5 0.5,1.6204236 0.5,3.00044415 Z" id="Rectangle-Copy-4" stroke="#E6E7E8"></path>
            <path d="M28.3259756,16.2433714 L22.6964614,29.5748353 L19.0234395,29.5748353 L16.252886,18.9351732 C16.0851318,18.2813681 15.9390675,18.0407221 15.4278426,17.7643743 C14.592366,17.3138784 13.2127177,16.8925434 12,16.6303673 L12.0818179,16.2433714 L17.9949494,16.2433714 C18.7475098,16.2433714 19.4251162,16.7407429 19.5972634,17.601945 L21.0612006,25.3170627 L24.6751928,16.2433714 L28.3259756,16.2433714 Z M33.2913368,16.2433714 L30.4183736,29.5748353 L26.9435817,29.5748353 L29.8165449,16.2433714 L33.2913368,16.2433714 Z M42.7168745,25.2222215 C42.7314259,21.7043742 37.8165832,21.509241 37.8487064,19.9372746 C37.8605124,19.4595254 38.3190224,18.9507075 39.3228023,18.8207096 C39.8200248,18.756937 41.1936329,18.7059735 42.7495467,19.4175554 L43.3582393,16.5889424 C42.5222135,16.2888843 41.4464996,16 40.1083094,16 C36.6733283,16 34.2569534,17.8109773 34.2377344,20.4063027 C34.2152207,22.3260204 35.9635988,23.3959823 37.2784517,24.0353432 C38.6328408,24.6883306 39.0869579,25.1080305 39.0806431,25.6915221 C39.0710336,26.5859733 37.9991636,26.9819628 37.0025222,26.9966795 C35.2549676,27.0242053 34.2418526,26.5279238 33.4338319,26.154282 L32.8031748,29.0766462 C33.6161376,29.4464726 35.1143944,29.7677882 36.6661899,29.7841401 C40.3177965,29.7841401 42.7061668,27.9938753 42.7168745,25.2222215 L42.7168745,25.2222215 Z M51.78741,29.5748353 L55,29.5748353 L52.1932051,16.2433714 L49.2290891,16.2433714 C48.5605431,16.2433714 47.9987996,16.6284596 47.7495021,17.2206723 L42.5356669,29.5748353 L46.1845278,29.5748353 L46.9082597,27.5834416 L51.3662398,27.5834416 L51.78741,29.5748353 Z M47.908745,24.8515775 L49.738392,19.8451586 L50.7893958,24.8515775 L47.908745,24.8515775 Z M37.7382522,33.2444287 L36.3264807,33.2444287 L36.3264807,34.5487683 L37.905732,34.5487683 L37.905732,34.9409423 L35.8506736,34.9409423 L35.8506736,31.3222581 L37.8247376,31.3222581 L37.8247376,31.7144321 L36.3264807,31.7144321 L36.3264807,32.8577052 L37.7382522,32.8577052 L37.7382522,33.2444287 Z M38.6350921,31.1291962 L39.1108993,31.1291962 L39.1108993,34.9408333 L38.6350921,34.9408333 L38.6350921,31.1291962 Z M40.3111795,33.7274377 C40.3218872,34.3665259 40.7276824,34.6295196 41.2087059,34.6295196 C41.5497057,34.6295196 41.7605654,34.57038 41.9338107,34.4954337 L42.0202961,34.8336463 C41.8525419,34.9085927 41.560688,34.9998911 41.1439106,34.9998911 C40.3383607,34.9998911 39.8570626,34.4684531 39.8570626,33.68465 C39.8570626,32.900847 40.3218872,32.2887395 41.0846062,32.2887395 C41.9445184,32.2887395 42.1663604,33.0297549 42.1663604,33.5075041 C42.1663604,33.6039805 42.1608694,33.6737487 42.1498871,33.7274377 L40.3111795,33.7274377 L40.3111795,33.7274377 Z M41.7064776,33.389225 C41.7119687,33.0940726 41.5821033,32.6269521 41.0467174,32.6269521 C40.5599281,32.6269521 40.354285,33.0619137 40.3163961,33.389225 L41.7064776,33.389225 Z M44.7558161,34.8495622 C44.6314417,34.9087017 44.3555121,35 44.0040793,35 C43.2144538,35 42.7007579,34.4685621 42.7007579,33.6738577 C42.7007579,32.8739754 43.2520681,32.2888485 44.1067636,32.2888485 C44.3879099,32.2888485 44.6366584,32.3583443 44.7665239,32.4283851 L44.658623,32.7881277 C44.5446819,32.7289882 44.3662199,32.664398 44.1067636,32.664398 C43.5063078,32.664398 43.1820562,33.1099883 43.1820562,33.6471496 C43.1820562,34.2483559 43.5713779,34.6187273 44.0905647,34.6187273 C44.3610033,34.6187273 44.5394654,34.5544098 44.6745472,34.4952703 L44.7558161,34.8495622 Z M46.0907941,31.719692 L46.0907941,32.3424284 L46.7719697,32.3424284 L46.7719697,32.7018986 L46.0907941,32.7018986 L46.0907941,34.1032596 C46.0907941,34.4256656 46.1827707,34.6079895 46.4477181,34.6079895 C46.5773088,34.6079895 46.6533612,34.5973608 46.7236477,34.5755582 L46.7453377,34.9355735 C46.6533612,34.9677322 46.5072969,34.9998911 46.3233438,34.9998911 C46.1015017,34.9998911 45.9230398,34.9246721 45.8096478,34.8014876 C45.6797824,34.6562279 45.6256948,34.4256656 45.6256948,34.1196117 L45.6256948,32.7018986 L45.2198996,32.7018986 L45.2198996,32.3424284 L45.6256948,32.3424284 L45.6256948,31.8592285 L46.0907941,31.719692 Z M47.4367817,33.1531574 C47.4367817,32.8471037 47.431016,32.58411 47.4150918,32.3423739 L47.8315945,32.3423739 L47.8532844,32.8577326 L47.8692089,32.8577326 C47.9883664,32.5088911 48.2802205,32.288685 48.5992555,32.288685 C48.6481267,32.288685 48.6860156,32.2941357 48.7293955,32.2993137 L48.7293955,32.7451767 C48.6805243,32.7342754 48.6322024,32.7342754 48.5668578,32.7342754 C48.2318984,32.7342754 47.993583,32.9811896 47.9287876,33.3357541 C47.9180799,33.4000718 47.9125888,33.4804688 47.9125888,33.5559603 L47.9125888,34.9409697 L47.4367817,34.9409697 L47.4367817,33.1531574 Z M51.6546067,33.6201416 C51.6546067,34.5810906 50.9783731,34.9999728 50.3510107,34.9999728 C49.6478706,34.9999728 49.0965604,34.4843418 49.0965604,33.6632017 C49.0965604,32.7987293 49.6750517,32.2888212 50.3943908,32.2888212 C51.1461274,32.2888212 51.6546067,32.830888 51.6546067,33.6201416 Z M49.5830752,33.6471224 C49.5830752,34.21617 49.9076014,34.6456807 50.3727006,34.6456807 C50.8270924,34.6456807 51.167543,34.2213481 51.167543,33.6362211 C51.167543,33.1960814 50.9459755,32.6428407 50.3834085,32.6428407 C49.8266072,32.6428407 49.5830752,33.158472 49.5830752,33.6471224 Z M52.3838849,33.0456163 C52.3838849,32.7719939 52.378119,32.5572384 52.3621949,32.3424828 L52.783914,32.3424828 L52.8110952,32.7719939 L52.8218029,32.7719939 C52.9516685,32.5302577 53.2545047,32.288794 53.6872063,32.288794 C54.0493468,32.288794 54.6119139,32.5035495 54.6119139,33.3944577 L54.6119139,34.9408061 L54.1361068,34.9408061 L54.1361068,33.4429685 C54.1361068,33.0243589 53.9793349,32.6752449 53.5304344,32.6752449 C53.2221071,32.6752449 52.978575,32.8954509 52.8923641,33.1584448 C52.8703996,33.2175843 52.8596918,33.2979813 52.8596918,33.3786508 L52.8596918,34.9408061 L52.3838849,34.9408061 L52.3838849,33.0456163 Z" id="Shape" fill="#1A1F71" fill-rule="nonzero"></path>
        </g>
    </g>
</svg>